PathFileType	4	(X/Y/Z)	Kaydara																																																																																																																									
DataRate	CameraRate	NumFrames	NumMarkers	Units	OrigDataRate	OrigDataStartFrame	OrigNumFrames																																																																																																																					
30	30	5	41	mm	30	17	132																																																																																																																					
Frame#	Time	SALE_LFHD			SALE_RFHD			SALE_LBHD			SALE_RBHD			SALE_LFTShould			SALE_RFTShould			SALE_LRRShould			SALE_RRRShould			SALE_T10			SALE_STRN			SALE_TRUN			SALE_LSHO			SALE_LUPA			SALE_LELB			SALE_LFRM			SALE_LWRA			SALE_LWRB			SALE_LFIN			SALE_RSHO			SALE_RUPA			SALE_RELB			SALE_RFRM			SALE_RWRB			SALE_RFIN			SALE_LFWT			SALE_RFWT			SALE_LBWT			SALE_RBWT			SALE_LTHI			SALE_LKNE			SALE_RWRA			SALE_LSHN			SALE_LANK			SALE_LHEE			SALE_LTOE			SALE_RTHI			SALE_RKNE			SALE_RSHN			SALE_RANK			SALE_RHEE			SALE_RTOE		
		X1	Y1	Z1	X2	Y2	Z2	X3	Y3	Z3	X4	Y4	Z4	X5	Y5	Z5	X6	Y6	Z6	X7	Y7	Z7	X8	Y8	Z8	X9	Y9	Z9	X10	Y10	Z10	X11	Y11	Z11	X12	Y12	Z12	X13	Y13	Z13	X14	Y14	Z14	X15	Y15	Z15	X16	Y16	Z16	X17	Y17	Z17	X18	Y18	Z18	X19	Y19	Z19	X20	Y20	Z20	X21	Y21	Z21	X22	Y22	Z22	X23	Y23	Z23	X24	Y24	Z24	X25	Y25	Z25	X26	Y26	Z26	X27	Y27	Z27	X28	Y28	Z28	X29	Y29	Z29	X30	Y30	Z30	X31	Y31	Z31	X32	Y32	Z32	X33	Y33	Z33	X34	Y34	Z34	X35	Y35	Z35	X36	Y36	Z36	X37	Y37	Z37	X38	Y38	Z38	X39	Y39	Z39	X40	Y40	Z40	X41	Y41	Z41
																																																																																																																												
17	0.533	242.67387	1650.91141	-1965.65231	111.54457	1648.35358	-1968.42178	241.46498	1638.97797	-2100.35828	114.8407	1635.53421	-2095.73669	258.16465	1395.289	-2012.55875	115.45734	1390.77377	-2007.77252	246.2162	1446.43036	-2127.68326	96.63806	1450.97595	-2113.43109	167.55854	1292.95883	-2187.41577	185.30409	1321.99814	-1959.55902	184.76593	1236.43768	-1917.22931	369.66377	1418.76587	-2087.23709	410.1265	1202.8643	-2101.85059	394.15241	1093.46313	-2118.61038	426.11839	988.82874	-2081.58524	373.88966	860.73212	-1995.44083	433.0682	847.28294	-2039.43481	436.98616	810.97229	-1987.17331	6.03662	1419.27048	-2064.01306	-30.52523	1189.89708	-2124.34662	-60.97744	1090.97603	-2078.04794	-55.22788	977.25029	-2083.45657	-75.23944	840.74509	-2029.79965	-88.85465	807.19925	-1974.04343	308.69469	974.70802	-1980.71716	28.97351	972.94441	-1987.38449	252.75469	1042.40288	-2147.10556	75.55509	1047.38319	-2150.18356	303.62469	679.36821	-2157.63901	298.00539	506.28201	-2085.68512	-34.16905	857.40822	-1973.54843	294.99012	309.13757	-2092.54349	288.34848	125.95394	-2144.49036	246.17722	76.14229	-2204.9791	271.81995	86.29107	-2009.31839	21.12319	726.12282	-2153.36395	35.53825	563.44799	-2056.02615	84.90895	374.94465	-2076.23932	38.82276	123.88804	-2137.65518	44.79844	78.71244	-2016.32965	84.53403	63.90508	-2206.38474
18	0.567	242.71784	1650.85709	-1965.4335	111.67633	1648.36319	-1968.0957	241.42826	1638.9473	-2100.09766	114.85353	1635.58273	-2095.43381	258.151	1395.55786	-2011.63986	115.56668	1391.25107	-2006.80634	246.28998	1446.67786	-2126.98776	96.67092	1451.07132	-2112.99316	167.74761	1293.11981	-2186.97388	185.14137	1322.27295	-1958.87726	184.60274	1236.642	-1916.61804	369.76261	1419.21936	-2086.20911	410.39112	1203.34564	-2101.01196	394.38034	1093.97705	-2118.14346	426.26888	989.13765	-2082.15561	373.75008	859.95575	-1997.7301	433.04794	847.07191	-2041.62842	436.73988	810.04242	-1989.75113	5.97798	1419.50394	-2063.64304	-30.79396	1190.2224	-2123.91617	-61.34395	1091.41693	-2077.65366	-55.47374	977.47154	-2083.20999	-75.66442	841.03828	-2030.00946	-89.0764	807.18781	-1974.23096	308.56758	974.79042	-1980.18204	28.59898	973.10432	-1986.94183	252.85393	1042.35062	-2146.5535	75.70564	1047.32834	-2149.94873	303.64195	679.43275	-2157.02438	297.85015	506.27663	-2085.24353	-34.33045	857.36084	-1973.63525	294.95153	309.19128	-2092.23587	288.50965	126.10497	-2144.28696	246.20472	76.19414	-2204.96094	271.76535	86.29535	-2009.30389	21.21775	726.05255	-2153.10257	35.55438	563.43407	-2055.71884	84.8889	374.89704	-2076.03424	38.8309	123.93371	-2137.67502	44.777	78.73527	-2016.33484	84.5354	63.94808	-2206.39664
19	0.6	242.70931	1650.77499	-1965.03174	111.66824	1648.32077	-1967.7771	241.4394	1638.95844	-2099.7612	114.84816	1635.58441	-2095.06805	258.18308	1395.92758	-2010.88287	115.72935	1391.67145	-2006.17889	246.51003	1446.87668	-2126.3501	96.89841	1451.16211	-2112.50336	168.00638	1293.27698	-2186.38153	185.09584	1322.63596	-1958.07037	184.57493	1236.93382	-1915.92987	369.83925	1419.599	-2085.10529	410.70374	1203.82065	-2100.26199	394.6524	1094.54514	-2117.84348	426.50372	989.4651	-2083.0806	373.74111	858.83949	-2000.71869	433.47393	847.18979	-2044.97467	436.81221	809.03687	-1993.35587	6.11725	1419.71542	-2063.13995	-30.89949	1190.48889	-2123.31146	-61.32081	1091.67442	-2077.16034	-55.63634	977.81197	-2083.15643	-75.8762	841.24352	-2030.56549	-89.15395	807.00851	-1974.87274	308.52703	974.73335	-1979.51477	28.58817	973.12286	-1986.95801	252.90081	1042.21268	-2145.95825	75.84221	1047.19994	-2149.57199	303.67569	679.36729	-2156.27808	297.76062	506.22288	-2084.71954	-34.44651	857.17133	-1974.13605	294.83868	309.14799	-2091.80511	288.52045	126.11328	-2144.12277	246.17252	76.2106	-2204.95605	271.73504	86.33051	-2009.2691	21.22249	726.05568	-2152.76337	35.55419	563.42487	-2055.48126	84.92705	374.88609	-2075.80841	38.87547	123.93345	-2137.66571	44.80569	78.7368	-2016.30707	84.56857	63.92515	-2206.36887
20	0.633	242.70063	1650.77896	-1964.57794	111.75632	1648.21152	-1967.23999	241.52597	1639.03519	-2099.34082	114.94707	1635.52582	-2094.59732	258.3964	1396.31653	-2009.95193	115.74382	1391.90796	-2005.6073	246.77292	1447.06314	-2125.6691	97.1524	1451.259	-2111.99921	168.33632	1293.37234	-2185.72128	185.15656	1322.98843	-1957.25037	184.60463	1237.24876	-1915.10773	370.14179	1420.00519	-2084.26666	411.09905	1204.19518	-2099.68155	394.92908	1095.02403	-2117.66357	426.973	989.8143	-2084.50974	374.15245	857.74582	-2004.14032	433.64304	846.65771	-2048.28781	437.04334	807.82608	-1997.50214	6.27654	1419.935	-2062.55676	-30.81964	1190.76057	-2122.80121	-61.21072	1091.88431	-2076.70776	-55.59566	978.05702	-2083.13812	-75.97878	841.36665	-2031.37238	-89.24942	806.74393	-1975.83679	308.48001	974.72954	-1978.75549	28.41024	973.08449	-1986.26053	252.94258	1042.05994	-2145.24811	75.93745	1047.08992	-2149.07898	303.62928	679.37859	-2155.50369	297.63027	506.16177	-2084.14215	-34.49219	856.93306	-1974.86435	294.84049	309.08936	-2091.52908	288.52089	126.04943	-2144.10324	246.15564	76.21998	-2204.90067	271.66296	86.33224	-2009.24774	21.30443	726.01242	-2152.2583	35.56047	563.40614	-2055.14969	84.92053	374.85394	-2075.61752	38.8777	123.93011	-2137.61856	44.78459	78.71259	-2016.31241	84.57466	63.92726	-2206.36292
21	0.667	242.86676	1650.70297	-1963.93005	111.87754	1648.14026	-1966.7395	241.75926	1639.02679	-2098.75351	115.21296	1635.48569	-2094.09088	257.49809	1395.98358	-2008.22845	117.7187	1391.75949	-2002.32666	247.13175	1447.1637	-2124.89227	97.48179	1451.34506	-2111.32339	168.62207	1293.41125	-2184.96704	185.41191	1323.32184	-1956.25214	184.77053	1237.58385	-1914.11926	370.46066	1420.24582	-2083.30338	411.46748	1204.45808	-2099.24667	395.2449	1095.39398	-2117.67319	427.35386	989.99252	-2085.89142	374.65164	856.66008	-2007.67303	434.15176	846.06529	-2051.95618	437.56229	806.57188	-2001.92795	6.55663	1420.1004	-2061.84509	-30.53792	1190.9832	-2122.23221	-60.96029	1092.06703	-2076.34796	-55.49991	978.4137	-2083.36227	-76.10538	841.38748	-2032.28531	-89.26978	806.42365	-1976.91772	308.43126	974.63669	-1977.92221	28.4477	973.08952	-1985.89066	252.96261	1041.96945	-2144.52957	76.03317	1046.97319	-2148.46497	303.60659	679.37675	-2154.74976	297.25685	505.63965	-2084.65179	-34.46449	856.53252	-1975.70923	294.84148	309.02452	-2091.28922	288.52844	126.10188	-2144.0329	246.14008	76.24434	-2204.92477	271.65546	86.32633	-2009.23676	21.37634	725.97557	-2151.73279	35.54925	563.30894	-2054.84375	84.84238	374.77505	-2075.36957	38.87518	123.93503	-2137.60864	44.77732	78.70459	-2016.32477	84.59033	63.91355	-2206.36185
